<svg id="visual" viewBox="0 0 900 400" width="900" height="400" xmlns="http://www.w3.org/2000/svg" xmlns:xlink="http://www.w3.org/1999/xlink" version="1.1"><path d="M0 231L16.7 237C33.3 243 66.7 255 100 261.2C133.3 267.3 166.7 267.7 200 264C233.3 260.3 266.7 252.7 300 247.7C333.3 242.7 366.7 240.3 400 248C433.3 255.7 466.7 273.3 500 277.8C533.3 282.3 566.7 273.7 600 272.7C633.3 271.7 666.7 278.3 700 279.2C733.3 280 766.7 275 800 271C833.3 267 866.7 264 883.3 262.5L900 261L900 401L883.3 401C866.7 401 833.3 401 800 401C766.7 401 733.3 401 700 401C666.7 401 633.3 401 600 401C566.7 401 533.3 401 500 401C466.7 401 433.3 401 400 401C366.7 401 333.3 401 300 401C266.7 401 233.3 401 200 401C166.7 401 133.3 401 100 401C66.7 401 33.3 401 16.7 401L0 401Z" fill="#244bc7"></path><path d="M0 272L16.7 276.2C33.3 280.3 66.7 288.7 100 288.2C133.3 287.7 166.7 278.3 200 272.3C233.3 266.3 266.7 263.7 300 263.3C333.3 263 366.7 265 400 266.2C433.3 267.3 466.7 267.7 500 268.8C533.3 270 566.7 272 600 271.8C633.3 271.7 666.7 269.3 700 267.5C733.3 265.7 766.7 264.3 800 271.5C833.3 278.7 866.7 294.3 883.3 302.2L900 310L900 401L883.3 401C866.7 401 833.3 401 800 401C766.7 401 733.3 401 700 401C666.7 401 633.3 401 600 401C566.7 401 533.3 401 500 401C466.7 401 433.3 401 400 401C366.7 401 333.3 401 300 401C266.7 401 233.3 401 200 401C166.7 401 133.3 401 100 401C66.7 401 33.3 401 16.7 401L0 401Z" fill="#5059cf"></path><path d="M0 283L16.7 286.8C33.3 290.7 66.7 298.3 100 305.2C133.3 312 166.7 318 200 316C233.3 314 266.7 304 300 302.7C333.3 301.3 366.7 308.7 400 310.5C433.3 312.3 466.7 308.7 500 309.5C533.3 310.3 566.7 315.7 600 316.3C633.3 317 666.7 313 700 314.5C733.3 316 766.7 323 800 320.7C833.3 318.3 866.7 306.7 883.3 300.8L900 295L900 401L883.3 401C866.7 401 833.3 401 800 401C766.7 401 733.3 401 700 401C666.7 401 633.3 401 600 401C566.7 401 533.3 401 500 401C466.7 401 433.3 401 400 401C366.7 401 333.3 401 300 401C266.7 401 233.3 401 200 401C166.7 401 133.3 401 100 401C66.7 401 33.3 401 16.7 401L0 401Z" fill="#6e67d6"></path><path d="M0 326L16.7 328.3C33.3 330.7 66.7 335.3 100 333.3C133.3 331.3 166.7 322.7 200 320.5C233.3 318.3 266.7 322.7 300 328.5C333.3 334.3 366.7 341.7 400 341C433.3 340.3 466.7 331.7 500 325.7C533.3 319.7 566.7 316.3 600 315C633.3 313.7 666.7 314.3 700 316.8C733.3 319.3 766.7 323.7 800 326.7C833.3 329.7 866.7 331.3 883.3 332.2L900 333L900 401L883.3 401C866.7 401 833.3 401 800 401C766.7 401 733.3 401 700 401C666.7 401 633.3 401 600 401C566.7 401 533.3 401 500 401C466.7 401 433.3 401 400 401C366.7 401 333.3 401 300 401C266.7 401 233.3 401 200 401C166.7 401 133.3 401 100 401C66.7 401 33.3 401 16.7 401L0 401Z" fill="#8777de"></path><path d="M0 361L16.7 356.7C33.3 352.3 66.7 343.7 100 340C133.3 336.3 166.7 337.7 200 339C233.3 340.3 266.7 341.7 300 342.8C333.3 344 366.7 345 400 344C433.3 343 466.7 340 500 338.3C533.3 336.7 566.7 336.3 600 338.7C633.3 341 666.7 346 700 345.7C733.3 345.3 766.7 339.7 800 341C833.3 342.3 866.7 350.7 883.3 354.8L900 359L900 401L883.3 401C866.7 401 833.3 401 800 401C766.7 401 733.3 401 700 401C666.7 401 633.3 401 600 401C566.7 401 533.3 401 500 401C466.7 401 433.3 401 400 401C366.7 401 333.3 401 300 401C266.7 401 233.3 401 200 401C166.7 401 133.3 401 100 401C66.7 401 33.3 401 16.7 401L0 401Z" fill="#9d87e6"></path><path d="M0 357L16.7 360C33.3 363 66.7 369 100 369.5C133.3 370 166.7 365 200 365.7C233.3 366.3 266.7 372.7 300 375.2C333.3 377.7 366.7 376.3 400 373C433.3 369.7 466.7 364.3 500 365.5C533.3 366.7 566.7 374.3 600 375.2C633.3 376 666.7 370 700 368.2C733.3 366.3 766.7 368.7 800 370.7C833.3 372.7 866.7 374.3 883.3 375.2L900 376L900 401L883.3 401C866.7 401 833.3 401 800 401C766.7 401 733.3 401 700 401C666.7 401 633.3 401 600 401C566.7 401 533.3 401 500 401C466.7 401 433.3 401 400 401C366.7 401 333.3 401 300 401C266.7 401 233.3 401 200 401C166.7 401 133.3 401 100 401C66.7 401 33.3 401 16.7 401L0 401Z" fill="#b297ee"></path></svg>